<svg width="48" height="48" viewBox="0 0 48 48" fill="none" xmlns="http://www.w3.org/2000/svg">
<path d="M24 1C11.2922 1 1 11.3018 1 24C1 36.6982 11.3018 47 24 47C36.6982 47 47 36.6982 47 24C47 11.3018 36.7078 1 24 1ZM34.531 21.1262L26.8738 13.4691L29.6426 10.7003C31.7526 8.59035 35.1802 8.59035 37.2998 10.7003C39.4097 12.8103 39.4097 16.2378 37.2998 18.3573L34.531 21.1262ZM37.2998 29.633C39.4097 31.743 39.4097 35.1707 37.2998 37.2902C35.1897 39.4001 31.7622 39.4001 29.6426 37.2902L26.8738 34.5214L34.531 26.8642L37.2998 29.633ZM24 31.6476L20.181 27.8285H24L16.362 24.0095L16.3429 23.9904L24 16.3334L27.8286 20.1618H24L31.6476 23.9904L23.9904 31.6476H24ZM10.7002 37.2997C8.5903 35.1897 8.5903 31.7621 10.7002 29.6426L13.4786 26.8642L21.1358 34.5214L18.3574 37.2997C16.2474 39.4097 12.8199 39.4097 10.7002 37.2997ZM10.7002 18.3479C8.5903 16.2378 8.5903 12.8103 10.7002 10.6907C12.8103 8.58076 16.2379 8.58076 18.3574 10.6907L21.1358 13.4691L13.4786 21.1262L10.7002 18.3479ZM29.5948 5.89789C28.5733 6.35616 27.6186 6.99585 26.7784 7.83609L24.0096 10.6049L21.2408 7.83609C20.4006 6.99585 19.4458 6.35616 18.4242 5.89789C20.1906 5.35367 22.0618 5.0577 24.0096 5.0577C25.9572 5.0577 27.8286 5.35367 29.6044 5.89789H29.5948ZM5.90743 18.3956C6.36572 19.4172 7.0054 20.3815 7.84564 21.2217L10.6144 23.9904L7.84564 26.7592C7.0054 27.5994 6.36572 28.5637 5.90743 29.5949C5.36322 27.8285 5.06725 25.9476 5.06725 24C5.06725 22.0523 5.36322 20.1714 5.90743 18.3956ZM18.4147 42.1021C19.4363 41.6438 20.4006 41.0042 21.2503 40.164L24.0191 37.3952L26.788 40.164C27.628 41.0042 28.5923 41.6438 29.6139 42.1021C27.8477 42.6463 25.9668 42.9423 24.0096 42.9423C22.0524 42.9423 20.181 42.6463 18.4147 42.1021ZM42.1213 29.5853C41.663 28.5637 41.0232 27.609 40.1831 26.7688L37.4144 24L40.1831 21.2313C41.0232 20.391 41.663 19.4362 42.1213 18.4147C42.6654 20.181 42.9614 22.0619 42.9614 24.0095C42.9614 25.9572 42.6654 27.8285 42.1213 29.5949V29.5853Z" fill="white"/>
</svg>
